<mxfile host="65bd71144e">
    <diagram id="kIxl7424jBe6QBndrhcp" name="Page-1">
        <mxGraphModel dx="1086" dy="792" grid="1" gridSize="10" guides="1" tooltips="1" connect="1" arrows="1" fold="1" page="1" pageScale="1" pageWidth="827" pageHeight="1169" background="#0D0D0D" math="0" shadow="0">
            <root>
                <mxCell id="0"/>
                <mxCell id="1" parent="0"/>
                <mxCell id="7" value="" style="edgeStyle=none;html=1;strokeColor=#FFFFFF;fontFamily=Courier New;fontSize=19;" edge="1" parent="1" source="3" target="6">
                    <mxGeometry relative="1" as="geometry"/>
                </mxCell>
                <mxCell id="3" value="&lt;font style=&quot;font-size: 19px;&quot;&gt;&lt;b&gt;N&lt;/b&gt;&lt;/font&gt;" style="shape=parallelogram;perimeter=parallelogramPerimeter;whiteSpace=wrap;html=1;fixedSize=1;fillColor=#f8cecc;strokeColor=#b85450;rounded=0;" vertex="1" parent="1">
                    <mxGeometry x="300" y="240" width="190" height="80" as="geometry"/>
                </mxCell>
                <mxCell id="10" value="" style="edgeStyle=none;html=1;strokeColor=#FFFFFF;fontFamily=Courier New;fontSize=19;" edge="1" parent="1" source="6" target="9">
                    <mxGeometry relative="1" as="geometry"/>
                </mxCell>
                <mxCell id="6" value="suma= N(N+1)/2" style="rounded=0;whiteSpace=wrap;html=1;labelBackgroundColor=#FFFFFF;fontFamily=Courier New;fontSize=19;fillColor=#AEE8B2;strokeColor=#82b366;" vertex="1" parent="1">
                    <mxGeometry x="250" y="370" width="220" height="90" as="geometry"/>
                </mxCell>
                <mxCell id="16" value="" style="edgeStyle=none;html=1;strokeColor=#FFFFFF;fontFamily=Courier New;fontSize=26;fontColor=#3D3D3D;" edge="1" parent="1" source="9" target="15">
                    <mxGeometry relative="1" as="geometry"/>
                </mxCell>
                <mxCell id="9" value="&lt;font style=&quot;font-size: 26px; background-color: rgb(255, 255, 255);&quot; color=&quot;#3d3d3d&quot;&gt;suma&lt;/font&gt;" style="shape=document;whiteSpace=wrap;html=1;boundedLbl=1;fontSize=19;fontFamily=Courier New;fillColor=#d80073;strokeColor=#A50040;rounded=0;labelBackgroundColor=#FFFFFF;fontColor=#ffffff;" vertex="1" parent="1">
                    <mxGeometry x="300" y="500" width="170" height="125" as="geometry"/>
                </mxCell>
                <mxCell id="14" value="" style="edgeStyle=none;html=1;strokeColor=#FFFFFF;fontFamily=Courier New;fontSize=26;fontColor=#3D3D3D;" edge="1" parent="1" source="13" target="3">
                    <mxGeometry relative="1" as="geometry"/>
                </mxCell>
                <mxCell id="13" value="INICIO" style="ellipse;whiteSpace=wrap;html=1;rounded=1;labelBackgroundColor=#FFFFFF;sketch=0;fontFamily=Courier New;fontSize=26;fontColor=#3D3D3D;fillColor=#AEE8B2;" vertex="1" parent="1">
                    <mxGeometry x="280" y="50" width="190" height="120" as="geometry"/>
                </mxCell>
                <mxCell id="15" value="FIN" style="ellipse;whiteSpace=wrap;html=1;rounded=1;labelBackgroundColor=#FFFFFF;sketch=0;fontFamily=Courier New;fontSize=26;fontColor=#3D3D3D;fillColor=#AEE8B2;" vertex="1" parent="1">
                    <mxGeometry x="260" y="690" width="160" height="110" as="geometry"/>
                </mxCell>
            </root>
        </mxGraphModel>
    </diagram>
</mxfile>